<svg xmlns="http://www.w3.org/2000/svg" xmlns:xlink="http://www.w3.org/1999/xlink" viewBox="0 0 2913.91 2896.47"><defs><linearGradient id="linear-gradient" x1="4176.5" y1="2234.42" x2="798.24" y2="831.59" gradientTransform="rotate(-7.9 2464.879 68.05)" gradientUnits="userSpaceOnUse"><stop offset=".1" stop-color="#311944"/><stop offset=".27" stop-color="#361a47"/><stop offset=".48" stop-color="#46204f"/><stop offset=".51" stop-color="#4a2252"/><stop offset=".68" stop-color="#5c285c"/><stop offset="1" stop-color="#893976"/></linearGradient><linearGradient id="linear-gradient-2" x1="4013.51" y1="2163.9" x2="635.16" y2="761.03" gradientTransform="rotate(-7.9 2464.879 68.05)" gradientUnits="userSpaceOnUse"><stop offset=".1" stop-color="#311944"/><stop offset=".27" stop-color="#361b47"/><stop offset=".48" stop-color="#462050"/><stop offset=".72" stop-color="#602a5f"/><stop offset=".97" stop-color="#843773"/><stop offset="1" stop-color="#893976"/></linearGradient><linearGradient id="linear-gradient-3" x1="-397.84" y1="54.08" x2="2052.8" y2="1588.6" gradientTransform="rotate(-7.9 2464.879 68.05)" gradientUnits="userSpaceOnUse"><stop offset="0" stop-color="#aa80f9"/><stop offset="1" stop-color="#6165d7"/></linearGradient><linearGradient id="linear-gradient-4" x1="4010.37" y1="2138.31" x2="476.17" y2="670.71" gradientTransform="rotate(-10.43 2379.907 -6466.33)" xlink:href="#linear-gradient-2"/><linearGradient id="linear-gradient-5" x1="4012.08" y1="2134.02" x2="477.96" y2="666.46" gradientTransform="rotate(-10.43 2379.907 -6466.33)" xlink:href="#linear-gradient-2"/><linearGradient id="linear-gradient-6" x1="465.17" y1="563.35" x2="3028.98" y2="2168.73" gradientTransform="rotate(-10.43 2379.907 -6466.33)" xlink:href="#linear-gradient-3"/><linearGradient id="linear-gradient-7" x1="2719.03" y1="1424.38" x2="2756.76" y2="1692.55" gradientTransform="rotate(3.88 3388.903 1569.339)" gradientUnits="userSpaceOnUse"><stop offset="0" stop-color="#ffc444"/><stop offset="1" stop-color="#f36f56"/></linearGradient><linearGradient id="linear-gradient-8" x1="1771.28" y1="1557.21" x2="1809.81" y2="1831.04" xlink:href="#linear-gradient-7"/><linearGradient id="linear-gradient-9" x1="2546.11" y1="2778.98" x2="2604.33" y2="2952.26" xlink:href="#linear-gradient-7"/><linearGradient id="linear-gradient-10" x1="2471.54" y1="2804.66" x2="2529.33" y2="2976.67" xlink:href="#linear-gradient-7"/><linearGradient id="linear-gradient-11" x1="2706.78" y1="2690.12" x2="2433.42" y2="2381.9" gradientTransform="rotate(3.88 3388.903 1569.339)" gradientUnits="userSpaceOnUse"><stop offset="0" stop-color="#444b8c"/><stop offset="1" stop-color="#3e4177"/></linearGradient><linearGradient id="linear-gradient-12" x1="2706.78" y1="2690.12" x2="2433.42" y2="2381.9" xlink:href="#linear-gradient-11"/><linearGradient id="linear-gradient-13" x1="2363.02" y1="2514.43" x2="1959.39" y2="2439.21" xlink:href="#linear-gradient-11"/><linearGradient id="linear-gradient-14" x1="2169.78" y1="1265.52" x2="2421.14" y2="2188.38" gradientTransform="rotate(3.88 3388.903 1569.339)" gradientUnits="userSpaceOnUse"><stop offset="0" stop-color="#ff9085"/><stop offset="1" stop-color="#fb6fbb"/></linearGradient><linearGradient id="linear-gradient-15" x1="2284.68" y1="1621.54" x2="2330.09" y2="1755.48" xlink:href="#linear-gradient-7"/><linearGradient id="linear-gradient-16" x1="2342.23" y1="3286.5" x2="2387.64" y2="3420.43" gradientTransform="rotate(3.88 3131.171 9165.22)" xlink:href="#linear-gradient-7"/><linearGradient id="linear-gradient-17" x1="3321.46" y1="4097.3" x2="3438.42" y2="4285.81" gradientTransform="rotate(3.88 3131.171 9165.22)" xlink:href="#linear-gradient-7"/><linearGradient id="linear-gradient-18" x1="1992.63" y1="1313.76" x2="2243.98" y2="2236.63" xlink:href="#linear-gradient-14"/><linearGradient id="linear-gradient-19" x1="3630.97" y1="1447" x2="3909.29" y2="1223.47" gradientTransform="scale(-1 1) rotate(21.44 -354.896 -10991.377)" xlink:href="#linear-gradient-7"/><linearGradient id="linear-gradient-20" x1="3055.89" y1="3623.39" x2="1308.11" y2="2195.9" xlink:href="#linear-gradient-2"/><linearGradient id="linear-gradient-21" x1="3082.94" y1="3590.23" x2="1335.19" y2="2162.76" xlink:href="#linear-gradient-2"/><linearGradient id="linear-gradient-22" x1="-314.69" y1="1161.65" x2="2676.08" y2="3034.38" xlink:href="#linear-gradient-3"/><linearGradient id="linear-gradient-23" x1="3935.72" y1="3161.31" x2="3996.2" y2="2829.75" gradientTransform="matrix(-1 0 0 1 4280.95 0)" gradientUnits="userSpaceOnUse"><stop offset="0" stop-color="#311944"/><stop offset="1" stop-color="#893976"/></linearGradient><linearGradient id="linear-gradient-24" x1="3995.53" y1="2903.98" x2="4010.19" y2="3046.16" gradientTransform="matrix(-1 0 0 1 4280.95 0)" xlink:href="#linear-gradient-7"/><linearGradient id="linear-gradient-25" x1="4203.49" y1="3087.35" x2="4242.93" y2="2871.12" xlink:href="#linear-gradient-23"/><linearGradient id="linear-gradient-26" x1="4251.01" y1="2882.1" x2="4265.63" y2="3023.82" gradientTransform="matrix(-1 0 0 1 4280.95 0)" xlink:href="#linear-gradient-7"/><linearGradient id="linear-gradient-27" x1="3548.82" y1="1821.36" x2="3491.84" y2="1676.65" gradientTransform="matrix(-1 0 0 1 4280.95 0)" xlink:href="#linear-gradient-7"/><linearGradient id="linear-gradient-28" x1="3670.79" y1="2751.74" x2="4275.66" y2="2019.76" gradientTransform="matrix(-1 0 0 1 4280.95 0)" gradientUnits="userSpaceOnUse"><stop offset="0" stop-color="#444b8c"/><stop offset="1" stop-color="#26264f"/></linearGradient><linearGradient id="linear-gradient-29" x1="3670.79" y1="2751.74" x2="4275.66" y2="2019.75" xlink:href="#linear-gradient-28"/><linearGradient id="linear-gradient-30" x1="3976.42" y1="2560.85" x2="4270.09" y2="2164.18" xlink:href="#linear-gradient-28"/><linearGradient id="linear-gradient-31" x1="222.86" y1="379" x2="175.26" y2="258.11" gradientTransform="scale(-1 1) rotate(19.4 -4297.256 -1895.325)" xlink:href="#linear-gradient-23"/><linearGradient id="linear-gradient-32" x1="1703.82" y1="252.35" x2="1771.19" y2="121.37" gradientTransform="scale(-1 1) rotate(47.89 -1209.608 -1949.188)" xlink:href="#linear-gradient-7"/><linearGradient id="linear-gradient-33" x1="2877.2" y1="1586.78" x2="3137.99" y2="1784.02" gradientTransform="matrix(-1 0 0 1 4280.95 0)" gradientUnits="userSpaceOnUse"><stop offset="0" stop-color="#ffc444"/><stop offset=".81" stop-color="#f57f53"/><stop offset="1" stop-color="#f36f56"/></linearGradient><linearGradient id="linear-gradient-34" x1="3474.27" y1="1852.73" x2="3620.37" y2="2472.21" gradientTransform="matrix(-1 0 0 1 4280.95 0)" xlink:href="#linear-gradient-7"/><linearGradient id="linear-gradient-35" x1="3439.39" y1="1860.96" x2="3585.5" y2="2480.44" gradientTransform="matrix(-1 0 0 1 4280.95 0)" xlink:href="#linear-gradient-7"/><style>.cls-1{fill:#26264f}.cls-4{fill:#fff;opacity:.3;mix-blend-mode:soft-light}.cls-23{fill:#d8dee8}</style></defs><g style="isolation:isolate"><g id="Layer_2" data-name="Layer 2"><g id="Illustration"><path d="M1550.78 2733.5c-231.27 46.15-699.98 139.68-1013.54-84.15C-31.84 2243.12 8.26 861.58 725.75 278.02c62.03-50.45 385.6-303.53 828.67-275.92 768.52 47.9 1449.7 912.46 1315.91 1605.34-78.3 405.51-420.84 675.03-561.86 785.99-58.12 45.73-332.1 255.15-757.69 340.08Z" style="fill:#f4f7fa"/><path d="M2397.51 177.07 589.17 66.79c-41.65-2.14-79.14 45.77-79.14 86v2454.72c0 55.79 54.06 67.02 95.71 62.54l1791.77-192.9c32.73-3.52 59.15-35.1 59.15-70.54V244.28c0-35.44-26.42-65.53-59.15-67.21Z" style="fill:#97a6b7"/><path class="cls-23" d="M2427.25 157.57 615.34 63.61c-41.65-2.16-75.57 28.95-75.57 69.49v2473.89c0 40.54 33.92 69.73 75.57 65.21l1811.91-196.59c32.73-3.55 59.15-35.37 59.15-71.09V225.31c0-35.71-26.42-66.04-59.15-67.74Z"/><path d="M615.34 2638.66c-22.47 2.39-40.79-13.43-40.79-35.28V134.75c0-21.85 18.32-38.71 40.79-37.59l1811.91 90.23c17.69.88 32.06 17.32 32.06 36.64v2183.32c0 19.32-14.36 36.57-32.06 38.46L615.34 2638.67Z" style="opacity:.74;fill:#fff"/><path style="fill:#fff" d="M2310.47 2387.25 760.73 2544.66V267.13l1549.74 61.53v2058.59z"/><path class="cls-23" d="M1103.17 1360.33v131.23l-129.67 4.61v-132.48l129.67-3.36Zm14.49-14.87-158.65 4.11v161.62l158.65-5.65v-160.09ZM2170.98 1468.06l-994.89 35.41v-159.53l994.89-25.79v149.91zM1103.17 1593.79V1725l-129.67 6.44v-132.47l129.67-5.19Zm14.49-15.08-158.65 6.35v161.62l158.65-7.88v-160.09ZM2170.98 1686.49l-994.89 49.41v-159.53l994.89-39.79v149.91zM1103.17 1827.26v131.19l-129.67 8.26v-132.45l129.67-7.01Zm14.49-15.3-158.65 8.58v161.62l158.65-10.11v-160.09ZM2170.98 1904.92l-994.89 63.41v-159.52l994.89-53.8v149.91zM1103.17 2060.73v131.17l-129.67 10.09v-132.42l129.67-8.84Zm14.49-15.51-158.65 10.81v161.62l158.65-12.35v-160.09ZM2170.98 2123.34l-994.89 77.42v-159.52l994.89-67.81v149.91zM1589.9 1189.02l-630.88 10.71V445.44l630.88 17.73v725.85zM2170.98 571.66l-482-10.69v-95.01l482 13.55v92.15zM2170.98 776.44l-482-4.33V724.6l482 5.76v46.08zM2170.98 852.37l-482-1.97v-47.5l482 3.4v46.07zM2170.98 928.31l-482 .39v-47.51l482 1.05v46.07z"/><path d="M1284.84 1243.1c30.31 10.44 64.04-7.69 75.35-40.51 11.31-32.82-4.09-67.89-34.4-78.33-1.57-.54-3.16-.96-4.74-1.35 2.9-17.69 4.5-35.34 4.78-52.81 1.62-.23 3.25-.48 4.88-.86 31.9-7.36 53.42-40.61 48.06-74.25-5.36-33.64-35.57-54.95-67.47-47.58-1.67.39-3.29.88-4.9 1.4a333.993 333.993 0 0 0-20.61-46.94c1.36-1.08 2.72-2.18 4.02-3.39 24.95-23.2 28.48-62.64 7.88-88.09-20.59-25.45-57.51-27.28-82.46-4.08-1.28 1.19-2.46 2.45-3.63 3.72a294.329 294.329 0 0 0-40.49-28.48c.7-1.62 1.39-3.26 1.97-4.95 11.31-32.82 27-69.13-3.47-79.1-70.48-23.06-94.98 8.46-106.28 41.28-.59 1.7-1.06 3.41-1.5 5.12-16.5-2.23-33.02-3.06-49.43-2.51-.14-1.72-.29-3.44-.57-5.16-5.36-33.64 2.11-53.29-30.4-49.42-70.89 8.44-90.49 42.44-85.13 76.09.28 1.76.67 3.46 1.08 5.15a332.038 332.038 0 0 0-45.15 24.28c-.94-1.4-1.92-2.79-2.99-4.12-20.59-25.45-57.51-27.28-82.46-4.08-24.95 23.2-28.48 62.64-7.88 88.09 1.05 1.3 2.18 2.5 3.31 3.69-10.54 13.94-20.15 28.82-28.77 44.55-1.49-.67-2.99-1.32-4.56-1.86-30.31-10.44-64.05 7.69-75.35 40.51-11.31 32.82 4.09 67.89 34.4 78.33 1.57.54 3.16.96 4.74 1.35-2.9 17.69-4.5 35.34-4.78 52.81-1.62.23-3.25.48-4.88.86-31.9 7.37-53.42 40.61-48.06 74.25 5.36 33.64 35.57 54.94 67.47 47.58 1.67-.38 3.29-.88 4.9-1.4 5.7 16.25 12.59 31.94 20.61 46.94-1.36 1.08-2.72 2.18-4.02 3.39-24.95 23.2-28.48 62.64-7.88 88.09 20.59 25.45 77.8 30.66 102.74 7.47 1.28-1.19-17.82-5.83-16.66-7.1a294.837 294.837 0 0 0 40.48 28.48c-.7 1.62-1.38 3.26-1.97 4.96-11.31 32.82 4.09 67.89 34.4 78.33 30.31 10.44 64.05-7.69 75.35-40.51.59-1.7 1.06-3.41 1.5-5.12 16.5 2.23 33.02 3.06 49.43 2.51.14 1.72.29 3.44.57 5.16 5.36 33.64 35.57 54.94 67.47 47.58 31.9-7.37 53.42-40.61 48.06-74.25-.28-1.76-.67-3.46-1.08-5.15a331.446 331.446 0 0 0 45.15-24.28c.94 1.4 1.92 2.79 2.99 4.12 20.59 25.45 57.51 27.28 82.46 4.08 24.95-23.2 28.48-62.64 7.88-88.09-1.06-1.3-2.18-2.5-3.32-3.68 10.54-13.94 20.15-28.82 28.77-44.55 1.49.67 2.99 1.32 4.56 1.86Zm-352.32 53.49c-110.04-37.92-165.97-165.25-124.91-284.4 41.06-119.15 163.55-185.01 273.59-147.09 110.04 37.92 165.97 165.25 124.91 284.4-41.06 119.15-163.55 185.01-273.59 147.09Z" style="fill:url(#linear-gradient)"/><path d="M1330.71 1069.24c31.9-7.36 53.42-40.61 48.06-74.25-5.36-33.64-35.57-54.95-67.47-47.58-1.67.38-3.29.88-4.9 1.4a333.993 333.993 0 0 0-20.61-46.94c1.36-1.07 2.72-2.18 4.02-3.39 24.95-23.2 52.64-74.73 29.55-97.93-43.83-44.04-79.17-17.44-104.12 5.76-1.28 1.19-2.46 2.44-3.63 3.71a294.837 294.837 0 0 0-40.48-28.48c.7-1.62 1.39-3.26 1.97-4.95 6.16-17.86 4.35-36.36-3.42-51.22-20.17 50.69-39.95 101.52-59.23 152.55 90.35 48.7 132.9 163.5 95.66 271.58-31.56 91.59-111.23 151.62-196.38 157.3-2.41 10.27-4.74 20.59-7.42 30.81-7.29 27.73-16.14 55.13-25.01 82.49 8.02.39 16.04.46 24.03.19.13 1.72.29 3.44.57 5.16 5.36 33.64 29.82 59.46 87.93 48.23 32.15-6.21 32.95-41.25 27.59-74.9-.28-1.76-.67-3.46-1.08-5.15a331.446 331.446 0 0 0 45.15-24.28c.94 1.4 1.92 2.79 2.99 4.12 20.59 25.46 80.29 29.19 105.24 5.99 24.95-23.2 5.69-64.55-14.9-90.01-1.06-1.3-2.18-2.5-3.32-3.68 10.54-13.94 20.16-28.82 28.77-44.55 1.49.67 2.99 1.32 4.56 1.86 30.31 10.45 64.04-7.69 75.35-40.51 11.31-32.82-4.09-67.89-34.4-78.33-1.57-.54-3.15-.96-4.74-1.35 2.9-17.69 4.5-35.34 4.78-52.81 1.62-.23 3.25-.48 4.88-.86Z" style="fill:url(#linear-gradient-2)"/><path d="M1361.65 1068.46c31.9-7.36 53.4-40.59 48.03-74.22-5.33-33.64-35.54-54.98-67.47-47.58-1.67.38-3.28.86-4.89 1.41a334.841 334.841 0 0 0-20.6-46.96c1.35-1.07 2.7-2.17 4.03-3.38 24.94-23.21 28.46-62.66 7.88-88.11-20.61-25.45-57.52-27.27-82.46-4.09-1.3 1.2-2.47 2.46-3.65 3.73a293.106 293.106 0 0 0-40.46-28.47c.69-1.63 1.38-3.26 1.95-4.95 11.31-32.84-4.09-67.9-34.39-78.32-30.31-10.46-64.04 7.69-75.35 40.49-.57 1.69-1.06 3.4-1.49 5.11-16.51-2.21-33.05-3.06-49.43-2.5-.16-1.7-.33-3.43-.57-5.15-5.37-33.64-35.57-54.93-67.47-47.58-31.93 7.36-53.43 40.59-48.07 74.23.28 1.79.67 3.49 1.08 5.15-15.58 6.88-30.65 15.01-45.16 24.3a52.72 52.72 0 0 0-2.99-4.12c-12.94-15.98-32.3-22.66-51.04-19.65-11.17 1.73-22.12 6.88-31.42 15.55-24.94 23.21-28.46 62.62-7.88 88.11 1.06 1.28 2.17 2.48 3.33 3.67a359.618 359.618 0 0 0-28.78 44.56c-1.48-.67-3-1.34-4.57-1.85-30.31-10.46-64.04 7.69-75.36 40.49-11.32 32.81 4.09 67.9 34.39 78.32 1.57.55 3.17.99 4.76 1.35a359.886 359.886 0 0 0-4.77 52.82c-1.65.23-3.26.49-4.89.86-31.9 7.36-53.43 40.59-48.06 74.27 5.37 33.64 35.57 54.94 67.47 47.58 1.66-.41 3.28-.89 4.89-1.41 5.69 16.25 12.59 31.94 20.63 46.91-1.38 1.11-2.73 2.21-4.02 3.41-24.95 23.18-28.47 62.62-7.89 88.07 20.58 25.49 57.52 27.31 82.46 4.09 1.26-1.2 2.48-2.43 3.62-3.72 12.59 10.58 26.12 20.07 40.5 28.5-.69 1.6-1.38 3.23-1.98 4.96-11.28 32.8 4.12 67.86 34.43 78.32 30.31 10.42 64.04-7.69 75.35-40.53.57-1.69 1.03-3.4 1.49-5.11 16.51 2.24 33.01 3.06 49.43 2.5.13 1.74.29 3.43.57 5.15 5.37 33.67 35.58 54.97 67.47 47.61 31.89-7.39 53.43-40.63 48.06-74.27-.28-1.75-.66-3.46-1.08-5.15a335.104 335.104 0 0 0 45.17-24.27c.93 1.41 1.88 2.77 2.99 4.12 20.58 25.45 57.52 27.27 82.46 4.06 19.54-18.15 25.94-46.29 17.92-69.82a59.335 59.335 0 0 0-10.03-18.25c-1.06-1.32-2.18-2.51-3.33-3.67 10.53-13.97 20.14-28.84 28.78-44.56 1.48.67 2.96 1.31 4.54 1.86 30.31 10.42 64.07-7.69 75.35-40.53 11.32-32.81-4.08-67.87-34.39-78.32-1.58-.55-3.13-.95-4.72-1.36 2.88-17.7 4.49-35.33 4.77-52.82 1.61-.22 3.26-.45 4.89-.86Zm-124.62 80.29c-27.84 80.82-93.18 137.11-166.63 153.13-34.86 7.62-71.53 6.17-106.94-6.03-110.06-37.94-165.99-165.24-124.93-284.4 18.35-53.28 52.96-95.87 95.49-123.31 52.56-34 117.26-44.77 178.11-23.78 110.05 37.9 165.96 165.25 124.9 284.41Z" style="fill:url(#linear-gradient-3)"/><path class="cls-4" d="M1277.88 1376.79c-24.94 23.21-61.88 21.39-82.46-4.06-1.1-1.35-2.06-2.71-2.99-4.12a336.231 336.231 0 0 1-45.17 24.27c.42 1.7.8 3.4 1.08 5.15 5.37 33.64-16.17 66.87-48.06 74.27-31.9 7.36-62.1-13.94-67.47-47.61-.27-1.72-.44-3.41-.57-5.15-16.42.56-32.92-.26-49.43-2.5-.46 1.71-.91 3.42-1.49 5.11-11.31 32.84-45.05 50.95-75.35 40.53-30.31-10.46-45.71-45.52-34.43-78.32.6-1.73 1.29-3.36 1.98-4.96-14.37-8.43-27.91-17.92-40.5-28.5a60.396 60.396 0 0 1-3.62 3.72c-24.94 23.21-61.88 21.39-82.46-4.09-20.58-25.45-17.06-64.89 7.89-88.07 1.3-1.2 2.64-2.31 4.02-3.41a329.287 329.287 0 0 1-20.63-46.91c-1.61.52-3.23 1-4.89 1.41-31.9 7.36-62.1-13.94-67.47-47.58-5.37-33.67 16.17-66.91 48.06-74.27 1.63-.37 3.24-.63 4.89-.86.28-17.49 1.85-35.11 4.77-52.82-1.59-.36-3.18-.8-4.76-1.35-30.31-10.42-45.71-45.52-34.39-78.32 11.32-32.81 45.05-50.95 75.36-40.49 1.57.51 3.09 1.18 4.57 1.85 8.6-15.75 18.24-30.62 28.78-44.56-1.15-1.19-2.27-2.39-3.33-3.67-20.58-25.49-17.06-64.89 7.88-88.11 9.29-8.68 20.25-13.82 31.42-15.55 43.33 29.94 85.33 70.04 104.89 120.33-42.53 27.45-77.14 70.04-95.49 123.31-41.06 119.16 14.87 246.46 124.93 284.4 35.42 12.2 72.09 13.65 106.94 6.03 54.07 30.93 127.66 38.27 225.39 5.1 8.02 23.54 1.62 51.68-17.92 69.82Z"/><path d="M2710.75 1257.59c54.24 16.06 112.31-18.54 129.7-77.27 17.39-58.73-12.49-119.36-66.73-135.42-2.81-.83-5.64-1.45-8.46-2.01 3.75-31.42 5.19-62.65 4.33-93.47 2.84-.53 5.69-1.1 8.54-1.9 55.67-15.46 91.02-75.73 78.96-134.62-12.06-58.89-66.97-94.1-122.64-78.65-2.91.81-5.73 1.81-8.52 2.86-11.3-28.21-24.67-55.33-39.98-81.14 2.32-2 4.62-4.05 6.83-6.29 42.18-42.83 45.34-112.64 7.06-155.91-38.28-43.27-103.5-43.63-145.68-.8-2.16 2.2-4.15 4.5-6.11 6.83a520.167 520.167 0 0 0-73.58-47.06c1.11-2.91 2.19-5.85 3.09-8.89 17.39-58.73 42.23-123.96-12.26-139.17-126.04-35.18-166.78 22.28-184.17 81.02-.9 3.04-1.6 6.09-2.25 9.14-29.26-2.65-58.44-2.83-87.34-.58-.37-3.02-.78-6.04-1.4-9.05-12.06-58.89-.41-94.11-57.42-84.76-124.33 20.39-156.23 81.85-144.17 140.74.63 3.08 1.44 6.05 2.3 8.99-26.9 13.32-52.88 28.79-77.71 46.3-1.77-2.4-3.59-4.77-5.6-7.04-38.28-43.27-103.5-43.63-145.68-.79-42.18 42.83-45.34 112.64-7.06 155.91 1.96 2.22 4.03 4.25 6.13 6.24-17.5 25.39-33.29 52.37-47.25 80.77-2.68-1.06-5.38-2.09-8.19-2.92-54.24-16.06-112.31 18.53-129.7 77.27-17.39 58.73 12.49 119.36 66.73 135.42 2.81.83 5.63 1.45 8.46 2.01-3.75 31.42-5.19 62.65-4.33 93.47-2.84.53-5.69 1.1-8.54 1.89-55.67 15.46-91.02 75.73-78.96 134.63 12.06 58.89 66.97 94.1 122.64 78.64 2.91-.81 5.73-1.81 8.52-2.85 11.3 28.21 24.67 55.33 39.98 81.15-2.32 2-4.62 4.05-6.83 6.29-42.18 42.83-45.34 112.64-7.06 155.91 38.28 43.27 139.52 48.02 181.7 5.19 2.16-2.2-31.87-8.89-29.91-11.22a520.167 520.167 0 0 0 73.58 47.06c-1.11 2.91-2.19 5.85-3.09 8.89-17.39 58.73 12.49 119.36 66.73 135.42 54.24 16.06 112.31-18.54 129.7-77.27.9-3.04 1.6-6.09 2.25-9.14 29.26 2.65 58.44 2.83 87.34.58.37 3.02.79 6.04 1.4 9.06 12.06 58.89 66.97 94.1 122.64 78.64 55.67-15.46 91.02-75.73 78.96-134.62-.63-3.08-1.44-6.05-2.3-8.99 26.9-13.32 52.88-28.79 77.71-46.3 1.77 2.4 3.6 4.77 5.6 7.03 38.28 43.27 103.5 43.63 145.68.8 42.18-42.83 45.34-112.64 7.06-155.91-1.96-2.21-4.04-4.24-6.13-6.24 17.5-25.39 33.29-52.37 47.25-80.77 2.68 1.06 5.38 2.09 8.19 2.92Zm-616.95 121.63c-196.94-58.31-305.4-278.44-242.27-491.68 63.13-213.24 273.96-338.84 470.9-280.54 196.94 58.31 305.41 278.44 242.27 491.68-63.13 213.24-273.96 338.84-470.9 280.53Z" style="fill:url(#linear-gradient-4)"/><path d="M2778.13 947.52c55.67-15.46 91.02-75.73 78.96-134.63-12.06-58.89-66.97-94.1-122.64-78.64-2.91.81-5.73 1.81-8.52 2.86-11.3-28.21-24.67-55.33-39.98-81.14 2.32-2 4.62-4.05 6.83-6.29 42.18-42.83 87-135.82 44.49-174.94-80.69-74.24-140.93-24.6-183.11 18.24-2.16 2.2-4.15 4.5-6.11 6.83-23.02-17.62-47.6-33.35-73.58-47.06 1.12-2.91 2.19-5.85 3.09-8.89 9.46-31.96 4.84-64.44-10-90.03-31.62 90.92-62.55 182.07-92.57 273.52 163.06 78.85 246.98 277.93 189.72 471.35-48.53 163.91-184.33 275.92-333.99 292.55-3.45 18.3-6.75 36.67-10.7 54.9-10.7 49.45-24.17 98.44-37.69 147.37 14.17.06 28.31-.44 42.37-1.53.37 3.02.78 6.04 1.4 9.06 12.06 58.89 57.19 102.51 158.76 78.2 56.19-13.45 54.89-75.28 42.83-134.18-.63-3.08-1.44-6.05-2.3-8.99 26.9-13.32 52.88-28.79 77.71-46.3 1.77 2.4 3.6 4.77 5.6 7.03 38.28 43.27 143.81 45.23 185.99 2.4 42.18-42.84 5.03-114.24-33.25-157.51-1.96-2.22-4.04-4.25-6.13-6.24 17.5-25.39 33.29-52.37 47.25-80.76 2.68 1.06 5.38 2.09 8.19 2.92 54.24 16.06 112.31-18.54 129.7-77.27 17.39-58.73-12.49-119.36-66.73-135.42-2.81-.83-5.64-1.45-8.46-2.01 3.75-31.42 5.19-62.65 4.33-93.47 2.84-.53 5.69-1.11 8.54-1.9Z" style="fill:url(#linear-gradient-5)"/><path d="M2828.18 1041.16c-2.82-.84-5.61-1.45-8.45-2.03 3.76-31.39 5.18-62.65 4.34-93.44 2.84-.54 5.69-1.12 8.51-1.93 55.69-15.43 91.02-75.72 78.97-134.6-12.06-58.88-66.97-94.13-122.63-78.66-2.9.84-5.74 1.83-8.54 2.86a586.912 586.912 0 0 0-39.95-81.15c2.31-2 4.59-4.04 6.81-6.28 42.19-42.83 45.35-112.65 7.05-155.9-38.26-43.28-103.47-43.64-145.66-.81-2.18 2.2-4.18 4.52-6.1 6.85-23.03-17.66-47.61-33.37-73.61-47.09 1.14-2.91 2.21-5.82 3.1-8.86 17.39-58.74-12.49-119.36-66.73-135.42-54.24-16.06-112.32 18.52-129.71 77.23-.9 3.08-1.6 6.13-2.23 9.15-29.27-2.63-58.45-2.83-87.36-.57-.38-3.02-.76-6.04-1.41-9.04-12.05-58.92-66.97-94.13-122.63-78.66-55.65 15.47-91.02 75.72-78.97 134.64.64 3.07 1.47 6.05 2.31 8.99-1.32.65-2.64 1.31-3.96 2.03a578.747 578.747 0 0 0-73.73 44.26c-1.81-2.41-3.62-4.78-5.63-7.02-38.26-43.28-103.51-43.64-145.65-.81-42.19 42.83-45.35 112.65-7.08 155.93 1.97 2.2 4.03 4.21 6.13 6.24-17.49 25.39-33.3 52.37-47.24 80.74-2.69-1.05-5.38-2.07-8.2-2.91-54.24-16.06-112.32 18.52-129.71 77.27-17.39 58.74 12.49 119.36 66.73 135.42 2.82.84 5.65 1.45 8.45 1.99-3.72 31.43-5.18 62.65-4.3 93.48-2.84.54-5.69 1.12-8.55 1.89-55.65 15.47-91.02 75.76-78.97 134.64 12.06 58.88 66.98 94.09 122.63 78.62 2.94-.8 5.74-1.79 8.54-2.82 11.31 28.18 24.65 55.31 39.99 81.12-2.31 2-4.63 4.08-6.85 6.31-42.15 42.83-45.34 112.62-7.04 155.9 38.26 43.28 103.5 43.64 145.69.81 2.14-2.2 4.14-4.52 6.1-6.85a516.45 516.45 0 0 0 73.58 47.06c-1.11 2.91-2.18 5.86-3.11 8.9-17.39 58.74 12.48 119.36 66.73 135.42 54.24 16.06 112.32-18.52 129.71-77.27.89-3.04 1.6-6.09 2.26-9.11 29.23 2.63 58.41 2.82 87.32.57.38 3.02.8 6.04 1.41 9.04 12.06 58.88 66.97 94.13 122.63 78.66 51.84-14.4 86.03-67.63 80.78-122.44-.38-4.06-.98-8.14-1.81-12.2-.64-3.07-1.43-6.05-2.31-8.99 26.9-13.31 52.87-28.79 77.72-46.29 1.77 2.37 3.58 4.74 5.59 7.02 38.3 43.28 103.5 43.64 145.69.81s45.35-112.65 7.05-155.93c-1.94-2.2-4.03-4.22-6.13-6.24 17.49-25.39 33.31-52.36 47.27-80.74 2.65 1.05 5.38 2.07 8.2 2.91 54.21 16.05 112.28-18.53 129.67-77.27 17.39-58.74-12.48-119.36-66.73-135.42Zm-209.02 53.76c-55.82 188.49-226.96 308.5-401.95 293.57-23-1.96-46.05-6.23-68.93-13-196.95-58.34-305.42-278.44-242.29-491.71C1942.4 760.8 2027.92 667 2131.58 620.79c76.09-33.96 161.95-42.24 245.33-17.54 196.91 58.33 305.39 278.44 242.25 491.67Z" style="fill:url(#linear-gradient-6)"/><path class="cls-4" d="M2403.18 1675.93c-55.65 15.47-110.57-19.78-122.63-78.66-.61-3-1.02-6.02-1.41-9.04-28.91 2.25-58.09 2.06-87.32-.57-.66 3.02-1.37 6.07-2.26 9.11-17.39 58.74-75.47 93.33-129.71 77.27-54.24-16.06-84.12-76.67-66.73-135.42.93-3.04 2-5.99 3.11-8.9a516.45 516.45 0 0 1-73.58-47.06c-1.96 2.33-3.96 4.65-6.1 6.85-42.19 42.83-107.43 42.46-145.69-.81-38.3-43.28-35.11-113.07 7.04-155.9 2.22-2.23 4.53-4.31 6.85-6.31-15.34-25.81-28.67-52.94-39.99-81.12-2.8 1.03-5.61 2.03-8.54 2.82-55.65 15.47-110.57-19.74-122.63-78.62-12.06-58.88 23.31-119.18 78.97-134.64 2.86-.77 5.7-1.35 8.55-1.89-.88-30.83.58-62.05 4.3-93.48-2.8-.54-5.64-1.15-8.45-1.99-54.24-16.06-84.12-76.67-66.73-135.42 17.39-58.74 75.47-93.33 129.71-77.27 2.82.84 5.51 1.86 8.2 2.91 13.93-28.38 29.74-55.35 47.24-80.74-2.1-2.02-4.16-4.04-6.13-6.24-38.26-43.28-35.1-113.1 7.08-155.93 42.15-42.83 107.39-42.47 145.65.81 2.01 2.24 3.82 4.61 5.63 7.02a578.051 578.051 0 0 1 73.73-44.26c40.47 51.1 73.86 109.02 90.24 172.32-103.66 46.21-189.18 140.01-225.59 262.99-63.14 213.27 45.34 433.38 242.29 491.71a345.522 345.522 0 0 0 68.93 13c62.97 84.27 151.73 145.35 266.76 165 5.25 54.81-28.94 108.04-80.78 122.44Z"/><path d="m2707.53 1402.84 3.57-52.55s-6.79-11.73-8.87-39.78c-2.08-28.04 4.38-16.54 7.13-4.75.77 3.29 2.63 6.16 4.91 8.59 5.73 6.11 13.57-.77 15.31-8.97l13.67-28.27s14.92 19.65-3.18 70.27c-5.67 15.85-3.74 55.14-3.74 55.14l-28.78.31Z" style="fill:url(#linear-gradient-7)"/><path d="m1784.38 1382.2-9.77-52.07s14.06-18.77 9.31-39.23c-4.75-20.46-1.56-13.07-7.36-.5-5.8 12.57-14.05-9.94-20.3-30.36s-12.22 9.91-11.6 28.2c.62 18.28.57 29.14 10.52 43.12 9.95 13.99 4.57 60.96 4.57 60.96l24.62-10.12Z" style="fill:url(#linear-gradient-8)"/><path class="cls-1" d="M2440.08 2841.8c1.19-11.25 28.2-7.14 45.89-4.22s25.04 10.59 27.37 17.46c2.33 6.86-.88 23.19-16.86 15.17-13.12-6.58-57.46-18.47-56.41-28.41Z"/><path d="m2475.78 2800.34 9.7 44.54s12.08 9.56 16.54 5.52l-1.3-50.66-24.94.61Z" style="fill:url(#linear-gradient-9)"/><path style="fill:url(#linear-gradient-10)" d="m2388.07 2768.42 40.69 21.14-8.48 20.75-41.26-13.78 9.05-28.11z"/><path class="cls-1" d="M2380.09 2850.62s27.45 9.13 40.93-6.55c8.67-10.08 16.51-27.66 21-38.93a12.48 12.48 0 0 0-6.21-15.9c-8.63-4.14-20.42-8.77-25.76-6.22-8.93 4.25-3.05 36.95-7.38 45.07-4.33 8.12-22.97 12.26-22.58 22.54Z"/><path d="M2364.88 2110.12c-.56 101.74 5.43 220.06 24.47 350.59a2338.955 2338.955 0 0 0 80.67 355.79c3.52 1.99 9.84 4.95 18.27 5.77 9.87.96 17.63-1.52 21.54-3.07 10.4-51.76 16.93-95.6 21.11-128.21 11.06-86.11 16.41-130.23 8.13-182.48-7.77-49.03-16.91-45.86-24.82-100-7.03-48.15-4.78-84.66-1.17-138.11 2.48-36.7 7.52-86.15 18.6-144.48-55.61-5.27-111.21-10.54-166.82-15.8Z" style="fill:url(#linear-gradient-11)"/><path d="M2477.94 2781.18c-8.68-36.51 14.32-51.36 14.85-96.91.65-55.65-33.38-59.63-39.94-122.7-5.27-50.68 16.14-53.58 14.69-114.85-1.53-65.12-26.14-79.97-18.16-118.46 4.43-21.4 19.03-50.01 65.37-79.1 2.88-33.74 7.87-75.43 16.95-123.23-55.61-5.27-111.21-10.54-166.82-15.8-.56 101.74 5.43 220.06 24.47 350.59a2338.955 2338.955 0 0 0 80.67 355.79c3.52 1.99 9.84 4.95 18.27 5.77 4.47.43 8.43.11 11.88-.46-9.84-10.93-18.37-24.34-22.24-40.64Z" style="fill:url(#linear-gradient-12);mix-blend-mode:multiply;opacity:.3"/><path d="M2230.18 2083.05c-3.68 24.28-10.17 60.97-21.73 104.79-26.07 98.8-50.36 129.36-60.64 194.42-11.98 75.86 4.78 137.35 11.16 160.74 43.53 159.66 187.19 242.36 225.31 262.81 5.42-14.1 10.84-28.2 16.25-42.29-8.99-13.9-22.2-36.19-34.1-65.34-20.32-49.77-19.98-78.25-32.85-126.77-23.22-87.54-46.1-76.92-48.44-120.85-3.71-69.62 53.9-93.71 113.11-222.31 16.97-36.85 27.55-68.12 33.51-87.37-67.19-19.27-134.38-38.54-201.57-57.82Z" style="fill:url(#linear-gradient-13)"/><path d="M2699.85 1381.21c14.34-1.32 28.68-2.65 43.02-3.98 16.11 26.26 62.06 108.93 44.78 214.05-4.09 24.91-20.09 107.41-94.92 168.83-53.58 43.98-110.57 55.07-136.58 58.47-8.41 123.22-11.35 201.09-10.27 247.88.13 5.64 1.3 52.99-9.18 113.25-3.19 18.36-4.85 27.64-7.73 32.58-39.91 68.46-237.36-1.34-290.13-28.52-13.72-7.07-27.5-16.54-32.62-32-6.58-19.86 2.17-36.87 6.29-51.98 10.1-37.11-10.34-67.03-50.23-143.06-16.87-32.15-41.26-80.35-69.34-142.68-37.97 8.34-127.02 21.84-210.13-24.96-122.12-68.77-182.82-240.41-133.84-418.62 13.06-2.79 26.12-5.58 39.19-8.37 6.1 35.64 19.25 83.97 49.51 133.87 18.36 30.27 33.65 55.48 62.1 70.93 44.67 24.25 87.07 5.58 147.92-5.13 95.89-16.88 174.16-2.84 269.23 14.22 103.87 18.64 131.09 42.08 208.59 32.82 34.47-4.12 77.66-9.83 114.83-41.29 73.14-61.89 61.38-171.26 59.54-186.29Z" style="fill:url(#linear-gradient-14)"/><path d="M2299.5 1492.37s-7.98 24.69.1 36.55c8.07 11.86 34.66 57.01 44.13 59.77 5.39 1.57 18.97 4.58 29.65 6.88 5.62 1.21 6.3 9.11.88 11.04-11.05 3.93-30.29 7.33-62.77 4.77-46.94-3.7-83.52-24.14-99.36-34.51-2.25-1.47-.9-4.95 1.76-4.57l21.03 3.02c18.01 2.59 33.94-11.83 33.15-30.01l-.52-11.84 31.94-41.1Z" style="fill:url(#linear-gradient-15)"/><path d="M2276.68 1541.62c-2.8-1.79-26.22-6.26-28.61-19.19-3.25-17.54 13.67-37.47 15.83-40.72 9.04-13.59 11.2-15.36 15.12-17.5l5.42-2.7s.31-.09.63-.18c3.4-.87 14.67-.2 16.9.49 7.13 2.21 12.19 32.54 6.18 74.22.16 1.62.3 3.26.44 4.91.35 4.28-32.23 2.14-31.91.66Z" style="fill:url(#linear-gradient-16)"/><path class="cls-1" d="M2260.1 1457.19c-1.37 5.05 11.49 16.17 16.99 20.96.67.58 2.58 2.53 4.23 5.56.24.44.44.95.6 1.6 2.1 8.43-11.77 16.88-9.59 20.77 1.58 2.82 10.74.07 11.58 2.46.79 2.25-6.95 6.05-6.06 8.74.67 2.03 5.35.65 7.93 3.9 1.28 1.61.76 2.76 1.85 7.45.62 2.65 1.55 5.58 2.33 7.23 3.79 8.02 16.24 11.96 18.96 9.13.76-.79.24-1.55 1.19-4.34 0 0 .88-2.59 3-5.47 3.02-4.13 9.65-6.68 16.46-10.71 12.62-7.46 16.5-14.44 17.69-16.81.13-.27.25-.51.36-.74.2-.4.38-.81.54-1.21 3.11-8.14-6.47-23.3-6.47-23.3-7.7-11.97-17.88-20.35-26.11-25.79-15.43-4.14-28.2-4.62-37.09-4.24-7.24.31-17.32.82-18.41 4.82Z"/><path class="cls-1" d="M2252.29 1499.98s9.19 12.68 23.38-.84l6.39 2.37s-18.33 34.01-21.74 33.77c-3.41-.23-13.22-3.18-13.22-3.18-3.63-1.82-5.46-5.96-4.33-9.86 2.05-7.11 6.87-17.35 9.52-22.27Z"/><path d="M2278.56 1503.54c3.58-4.08 8.79.53 8.31 6.19-.48 5.66-6.49 11.04-11.7 9.44-5.22-1.6-1.42-10.13 3.39-15.62Z" style="fill:url(#linear-gradient-17)"/><path d="M2476.82 2188.06c-69.81 19.4-146.89-21.12-163.48-70.4-12.26-36.43 21.37-68.1 1.68-106.08-18.96-36.58-58.58-23.45-82.76-60.78-26.36-40.68 10.08-72.66-12.11-126.33-16.7-40.37-60.64-78.67-106.17-81.68-54.11-3.58-77.7 44.86-123.51 31.61-23.93-6.92-22.37-21.55-54.68-47.84-56.07-45.64-96.75-30.88-143.26-63.51-13.67-9.59-28.67-23.89-42.03-46.15 23.98 75.56 70.16 137.2 132.29 172.19 83.11 46.8 172.17 33.3 210.13 24.96 28.08 62.33 52.47 110.53 69.34 142.68 39.89 76.03 60.33 105.95 50.23 143.06-4.11 15.11-12.87 32.12-6.29 51.98 5.12 15.46 18.9 24.93 32.62 32 52.77 27.18 250.22 96.99 290.13 28.52 2.88-4.93 4.53-14.21 7.73-32.58 1.99-11.44 3.56-22.4 4.79-32.72-15.25 17.03-36.25 33.17-64.67 41.06Z" style="fill:url(#linear-gradient-18);mix-blend-mode:multiply;opacity:.3"/><path d="M1107.58 1822.61s-219.21 161.66-374.96 63.76l-21.48 201.94s308.59 86.4 398.23-228.92l-1.8-36.78Z" style="fill:url(#linear-gradient-19)"/><path d="M1639.96 2198.83c39.82-3.56 71.41-40.14 70.58-81.69-.59-29.54-17.4-53.66-41.32-63.86-.36-.16-.67-.28-1.03-.39-9.53-3.88-20.13-5.58-31.24-4.59-2.09.2-4.11.51-6.17.87-4.15-20.6-9.84-40.73-17.04-60.18 1.86-1.07 3.68-2.21 5.46-3.44 34.05-23.84 44.92-70.94 24.32-105.18-7.67-12.73-18.62-21.87-31.12-27.09-15.93-6.76-34.4-7.08-51.68-.36-5.58 2.18-10.99 5.06-16.21 8.7-1.74 1.23-3.36 2.53-4.98 3.88-13.45-14.87-28.23-28.67-44.17-41.24 1.11-1.82 2.21-3.68 3.2-5.65 18.31-36.02 41.96-75.25 13.52-93.68-.28-.2-.59-.39-.91-.55-1.14-.67-2.33-1.34-3.52-1.94-81.34-39.74-116.25-5.73-135.43 32.03-.36.71-.67 1.42-.99 2.14-.59 1.27-1.15 2.53-1.66 3.8a361.106 361.106 0 0 0-59.35-11.31c.12-2.1.24-4.19.2-6.33-.67-34.05 7.47-55.91-11.51-62.91-3.32-1.23-7.55-2.73-12.77-3.01-.63-.04-1.27-.08-1.9-.08h-3.64c-86.08 0-115.14 36.85-114.31 78.25.04 2.17.24 4.59.43 6.72-10.64 3.01-21.16 6.6-31.51 10.52-.04 0-.08.04-.12.04-9.13 3.44-18.11 7.28-27.01 11.39-.91-1.86-1.86-3.64-2.93-5.46-7.67-12.73-18.62-21.83-31.12-27.05-13.13-5.58-28-6.76-42.47-3.24-8.74 2.1-17.4 5.93-25.43 11.59-34.05 23.84-44.92 70.94-24.32 105.14 1.07 1.74 2.21 3.4 3.4 5.02-13.36 13.36-26.02 27.8-37.8 43.18-1.5 1.94-2.97 3.88-4.43 5.85-1.7-1.07-3.4-2.1-5.22-3.04-1.38-.71-2.73-1.34-4.15-1.9-34.12-14.51-75.33 1.94-93.75 38.24-19.18 37.76-6.44 82.76 28.47 100.48 1.78.91 3.64 1.66 5.5 2.41-6.49 20.92-11.39 41.95-14.67 63.03-1.98 0-3.99.04-6.01.24-39.82 3.56-71.41 40.1-70.58 81.69.4 19.69 7.99 36.97 20.13 49.31 13.48 13.72 32.5 22.36 53.46 20.5 1.74-.16 3.52.22 5.26.22h.08c.28 0 .55-1.09.83-1.13.04.16.08-.21.08-.05.04.04.04-.16.04-.12 4.15 20.36 9.77 40.09 16.85 59.39 0 .04.04.06.04.1-1.82 1.07-3.64 2.14-5.42 3.37-19.57 13.72-31.52 34.86-34.16 56.85-1.98 16.25 1.11 32.97 9.84 47.48 15.98 26.49 60.42 43.69 95.5 35.78h.08c8.11 0 15.7-2.81 22.3-6.41.71.71 1.38 1.7 2.1 2.45.08.12.2.24.28.32 5.26 5.1 10.68 10.12 16.29 14.95.28.28.55.52.83.75 3.52 3.04 7.12 6.01 10.79 8.9-.04.04-.04.08-.08.12-1.07 1.82-2.17 3.72-3.12 5.61a82.535 82.535 0 0 0-7.71 22.97c-2.02 11.39-1.5 22.82 1.27 33.45 2.06 7.79 5.34 15.18 9.77 21.79 2.65 3.99 5.7 7.67 9.21 11.03 4.59 4.43 9.93 8.78 15.9 11.82 13.17 6.72 27.64 6.68 41.56 6.68h.08c22.89-3.95 44.33-19.53 56.23-42.98 1.03-1.94 1.86-4.78 2.69-6.76 10.04 2.81 20.13 6.25 30.29 6.25h.04c1.82 0 3.64 0 5.46 3.95h.08c.16 0 .36-.83.55-.83.2.04.4-.38.55-.34 1.38.24 2.81.25 4.23.44 1.19.2 2.41.28 3.6.44 4.82.75 9.19 1.29 14.06 1.8-.16 2.06-.69 3.78-.69 5.83v.43c0 .5.53.94.56 1.39.01.38.26.77.3 1.14 0 .4.12.75.16 1.15.12 1.82.38 3.6.62 5.34.04.55.15 1.07.23 1.62 3.91 24.67 19.51 44.33 40.62 53.26.79.36 1.63.67 2.5.99 1.19.44 2.42.87 3.68 1.27.36.16.75.28 1.15.36 7.75 2.21 16.09 3.08 24.75 2.33 1.82-.16 3.6-.4 5.34-.71.48-.08.99-.16 1.46-.28 36.54-6.84 64.53-41.56 63.74-80.71-.04-1.46-.12-2.88-.24-4.31-.04-.43-.08-.91-.12-1.34-.04-.24-.04-.47-.08-.75a401.868 401.868 0 0 0 58.64-21.79c.91 1.86 1.86 3.72 2.93 5.5.48.79.99 1.58 1.54 2.37 1.78 2.73 3.72 5.3 5.85 7.67l.08.08c10.6 12.02 24.79 19.38 40.02 21.51 6.88 1.03 14 .95 21.11-.28 10.44-1.7 20.84-5.85 30.41-12.58 32.46-22.74 43.85-66.63 26.97-100.36-.43-.87-.87-1.74-1.38-2.61-.4-.75-.83-1.5-1.26-2.21a64.05 64.05 0 0 0-3.4-4.98c15.06-15.11 29.18-31.48 42.23-49.03 1.7 1.07 3.4 2.1 5.22 3.01 8.9 4.51 18.35 6.8 27.88 7.08 4.63.2 9.21-.12 13.8-.91 22.89-3.88 44.29-19.02 56.23-42.51 19.14-37.76 6.44-82.72-28.47-100.44-1.78-.91-3.64-1.7-5.49-2.45 6.48-20.88 11.39-41.95 14.67-63.03 1.98 0 3.99-.04 6.01-.2ZM953.59 2451.5c.43.47.87.95 1.31 1.42-1.07-.67-1.62-1.19-1.31-1.42Zm166.91-44.68c-126.69-64.33-172.92-227.64-103.28-364.77 35.59-70.07 94.5-119.73 160.54-143.02 42.43-14.91 87.78-18.94 131.75-10.44 21.55 4.11 42.75 11.27 63.11 21.59 12.65 6.44 24.56 13.84 35.55 22.18 1.07.75 2.14 1.58 3.2 2.41 4.66 3.6 9.13 7.39 13.48 11.31 1.78 1.62 3.52 3.24 5.26 4.94.28.24.55.51.83.79 1.82 1.74 3.6 3.52 5.34 5.34.24.24.51.47.71.75 1.66 1.7 3.28 3.4 4.86 5.18.4.44.79.87 1.19 1.34 1.58 1.74 3.09 3.48 4.55 5.26.31.32.59.63.83.99 1.5 1.74 2.93 3.52 4.31 5.34 5.97 7.55 11.47 15.42 16.49 23.65 1.19 1.86 2.29 3.8 3.4 5.69.32.51.59 1.03.87 1.54.99 1.66 1.9 3.32 2.77 5.02.51.87.99 1.78 1.46 2.69.83 1.58 1.66 3.16 2.41 4.75a253.15 253.15 0 0 1 8.3 18.39c.99 2.37 1.9 4.78 2.81 7.2.79 2.17 1.58 4.39 2.33 6.6.59 1.62 1.11 3.24 1.62 4.86.36 1.11.71 2.21 1.03 3.32.43 1.3.79 2.57 1.15 3.84.4 1.3.75 2.57 1.07 3.84.47 1.5.87 3.04 1.23 4.55a272.64 272.64 0 0 1 3.56 15.78c.55 2.93 1.07 5.81 1.54 8.74.47 2.81.87 5.61 1.22 8.46.04.36.08.71.12 1.11.28 2.02.51 4.03.71 6.05.16 1.42.28 2.81.4 4.23.12 1.15.2 2.29.28 3.48.16 1.74.28 3.52.36 5.3 2.81 49.51-7.32 101.31-31.95 149.82-14.99 29.54-34.16 55.44-56.23 77.3a371.79 371.79 0 0 1-7.04 6.76c-2.41 2.21-4.82 4.35-7.28 6.49-1.35 1.15-2.69 2.33-4.07 3.44-1.11.95-2.26 1.86-3.4 2.77-2.49 2.02-5.02 3.99-7.59 5.93-22.06 16.65-46.11 29.73-71.21 39.03-4.11 1.5-8.23 2.93-12.38 4.23-4.23 1.34-8.5 2.57-12.81 3.68-.08.04-.16.04-.24.08-2.53.63-5.1 1.27-7.67 1.82-2.61.63-5.26 1.19-7.91 1.66a253.202 253.202 0 0 1-57.02 4.59c-2.61-.08-5.18-.2-7.75-.43-.4 0-.83-.04-1.23-.08-31.28-2.17-62.28-10.48-91.58-25.35Z" style="fill:url(#linear-gradient-20)"/><path d="M1633.95 2199.03c-3.28 21.08-8.19 42.15-14.67 63.03 1.86.75 3.72 1.54 5.49 2.45 34.92 17.71 47.61 62.67 28.47 100.44-11.94 23.49-33.33 38.63-56.23 42.51-4.59.79-9.17 1.11-13.8.91-9.53-.28-18.98-2.57-27.88-7.08-1.82-.91-3.52-1.94-5.22-3.01-13.05 17.56-27.17 33.93-42.23 49.03a64.05 64.05 0 0 1 3.4 4.98c.43.71.87 1.46 1.26 2.21.51.83 1.03 1.7 1.5 2.57 19.22 34.24 32.62 83.75.12 106.53-9.85 6.88-22.78 10.56-36.73 11.51-13.68.91-28.71-.79-42.31-4.78-15.58-4.51-28.03-11.94-39.9-21.67v-1.98h.59c-2.41 0-4.51-3.93-6.33-6.58-.55-.79-1.07-1.1-1.54-1.89-1.07-1.78-2.02-3.4-2.93-5.25-19.06 8.82-38.67 16.22-58.64 21.91.04.28.04.57.08.81.04.43.67.94.71 1.37.12 1.07.83 2.13.83 3.47v.87c0 41.28-7.47 84.15-47.09 84.15h-.12c-19.81 1.11-36.1-.67-49.27-4.78-.4-.08-.79-.2-1.15-.36a83.3 83.3 0 0 1-3.68-1.27c-.87-.32-1.7-.63-2.49-.99-25.27-10.36-37.37-30.13-40.61-53.26-.08-.55-.16-1.07-.2-1.62-.24-2.06-.44-4.11-.55-6.21 0-.08 0-.2-.04-.28-.12-1.07-.67-1.82-.71-2.97-.04-2.14-.4-3.76-.4-5.89v-.04c-3.95-.47-9.13-1.11-13.96-1.82-1.19-.16-2.13-.36-3.28-.55-1.42-.2-2.73.47-4.11.24-.32-.08-.63.71-.95.71h-.08c-1.82-3.95-3.64-3.95-5.46-3.95h-.04c15.3-31.63 31.28-62.66 44.76-94.96 4.94-11.86 10.76-23.64 14.71-35.58.04-.04.04.1.04.06 0 .16 4.23.35 7.08.47.28.04.51.07.75.07 19.14.67 38.12-.85 56.9-4.49 2.65-.51 5.26-1.06 7.91-1.65 2.57-.55 5.14-1.18 7.67-1.81.08-.04.16-.04.24-.08 4.31-1.11 8.58-2.33 12.81-3.68 4.15-1.31 8.27-2.69 12.38-4.23 25.19-9.21 49.23-22.34 71.37-39.03 2.57-1.94 5.02-3.92 7.51-5.93 1.15-.91 2.25-1.82 3.32-2.77 1.38-1.11 2.73-2.29 4.07-3.44 2.45-2.14 4.86-4.27 7.28-6.49 2.37-2.21 4.71-4.47 7.04-6.76 22.06-21.87 41.24-47.76 56.23-77.3 24.63-48.52 34.76-100.32 31.95-149.82-.08-1.78-.2-3.56-.36-5.3-.08-1.19-.16-2.33-.28-3.48-.12-1.42-.24-2.81-.4-4.23-.2-2.02-.43-4.03-.71-6.05-.04-.4-.08-.75-.12-1.11-.36-2.85-.75-5.65-1.22-8.46-.47-2.93-.99-5.81-1.54-8.74-1.03-5.3-2.21-10.56-3.56-15.78-.36-1.5-.75-3.04-1.23-4.55-.32-1.27-.67-2.53-1.07-3.84-.36-1.27-.71-2.53-1.15-3.84-.32-1.11-.67-2.21-1.03-3.32-.52-1.62-1.03-3.24-1.62-4.86-.75-2.21-1.54-4.43-2.33-6.6-.91-2.41-1.82-4.82-2.81-7.2-2.53-6.25-5.3-12.38-8.3-18.39-.75-1.58-1.58-3.16-2.41-4.75-.47-.91-.95-1.82-1.46-2.69-.87-1.7-1.78-3.36-2.77-5.02-.28-.51-.55-1.03-.87-1.54-1.11-1.9-2.21-3.84-3.4-5.69a239.749 239.749 0 0 0-16.49-23.65c-1.38-1.82-2.81-3.6-4.31-5.34-.24-.36-.52-.67-.83-.99-1.46-1.78-2.97-3.52-4.55-5.26-.39-.47-.79-.91-1.19-1.34-1.58-1.78-3.2-3.48-4.86-5.18-.2-.28-.48-.51-.71-.75-1.74-1.82-3.52-3.6-5.34-5.34-.28-.28-.55-.55-.83-.79-1.74-1.7-3.48-3.32-5.26-4.94-4.35-3.91-8.82-7.71-13.48-11.31-1.07-.83-2.14-1.66-3.2-2.41-.79-.63-1.54-1.23-2.33-1.78 2.61-4.74 5.22-9.53 7.83-14.27 29.34-53.66 59.15-107 89.36-160.18 6.88 19.26 5.97 41.91-4.47 62.48-.99 1.98-2.09 3.83-3.2 5.65 15.94 12.57 30.72 26.37 44.17 41.24 1.62-1.34 3.24-2.65 4.98-3.88 4.75-3.32 9.77-6.72 14.99-9.89 32.19-19.61 72.64-31.75 111.86 20.4 24 31.91-18.11 89.56-52.16 113.41-1.78 1.23-3.6 2.37-5.46 3.44 7.2 19.45 12.89 39.58 17.04 60.18 2.06-.36 4.07-.71 6.17-.87 11.11-.99 21.71.71 31.24 4.59.36.12.67.24 1.03.39 23.92 10.2 40.73 34.32 41.32 63.86.83 41.56-30.76 78.13-70.58 81.69-2.02.16-4.03.2-6.01.2Z" style="fill:url(#linear-gradient-21)"/><path d="M1677.49 2203.06c39.82-3.52 71.41-40.1 70.54-81.65-.83-41.6-33.77-72.4-73.55-68.84-1.78.12-3.52.4-5.26.71-.32.04-.59.12-.91.16-.04-.2-.08-.36-.12-.55-4.15-20.4-9.81-40.33-16.92-59.67 1.86-1.07 3.68-2.17 5.46-3.4 34.05-23.84 44.92-70.94 24.32-105.18-2.81-4.63-6.05-8.82-9.69-12.5-15.38-15.78-37.29-22.5-58.96-18.86-10.44 1.74-20.8 5.93-30.37 12.61-1.74 1.19-3.36 2.53-5.02 3.88a344.954 344.954 0 0 0-16.29-16.84c-.4-.44-.83-.83-1.23-1.19-8.46-8.15-17.32-15.9-26.61-23.21 1.11-1.82 2.21-3.68 3.2-5.65 18.35-36.1 7.51-78.85-24-97.95-.28-.2-.59-.39-.91-.55-1.14-.67-2.33-1.34-3.52-1.94-34.88-17.71-78.73-1.46-97.91 36.3-.99 1.98-1.82 3.95-2.65 5.93a356.42 356.42 0 0 0-35.86-8.07c-7.83-1.34-15.66-2.45-23.49-3.24.12-2.1.24-4.23.2-6.33-.67-32.66-21.04-59.27-49.03-67.18-4.11-1.23-8.38-2.65-12.77-3.01-.63-.04-1.27-.08-1.9-.08h-.2c-1.15 0-2.29.55-3.44.55-2.05 0-4.15.36-6.25.55-39.78 3.52-71.37 40.25-70.54 81.81.04 2.18.2 4.39.44 6.48-19.97 5.69-39.58 13.01-58.64 21.83-.91-1.86-1.86-3.68-2.93-5.46a66.164 66.164 0 0 0-7.47-10.12l-.12-.12c-15.46-17.4-38.36-24.95-61.05-21.11-8.46 1.38-16.88 4.39-24.83 9.05a75.51 75.51 0 0 0-5.54 3.52c-34.05 23.88-44.92 70.94-24.32 105.18 1.07 1.74 2.21 3.4 3.4 5.02-15.06 15.06-29.22 31.44-42.27 48.99-1.66-1.03-3.4-2.06-5.18-3.01-8.9-4.51-18.35-6.8-27.88-7.08-4.59-.2-9.21.12-13.8.91-22.9 3.88-44.33 19.06-56.23 42.51-19.18 37.76-6.44 82.76 28.43 100.48 1.82.91 3.68 1.66 5.54 2.41-6.48 20.88-11.39 41.95-14.67 63.03-1.98 0-3.99.04-6.05.24-39.78 3.52-71.37 40.1-70.54 81.69.59 29.5 17.32 53.58 41.24 63.78.04 0 .04.81.08.81.36.16.67 1.17 1.03 1.17h.04c9.53 3.95 20.05 4.8 31.2 3.82 2.06-.16 4.11-.86 6.13-1.26 4.15 20.6 9.89 40.54 17.04 60.03-1.82 1.07-3.64 2.08-5.42 3.31-34.05 23.88-44.96 70.06-24.32 104.3 12.85 21.31 34.92 31.47 57.97 31.47h.08c8.15 0 16.37-.87 24.4-3.95.08 0 .2-.04.28-.08 5.58-2.14 11.03-4.63 16.25-8.26 1.78-1.23 3.4-2.37 5.02-3.72 13.45 14.87 28.19 28.75 44.17 41.32-1.15 1.82-2.21 3.8-3.2 5.73-19.18 37.76-6.44 82.76 28.43 100.47 1.31.67 2.69 1.31 4.03 1.9.04 0 .04.04.08.04 34.12 14.51 75.33-1.94 93.75-38.24.36-.71.71-1.42 1.03-2.14.59-1.27 1.15-2.53 1.66-3.8 19.57 5.46 39.38 9.25 59.31 11.31-.12 2.14-.2 4.23-.16 6.37.59 29.54 17.4 52.79 41.4 62.99.48.2.99.4 1.46.59 5.58 2.18 11.51 3.44 17.71 3.44h.12c4.19 3.95 8.5 1.34 12.89.95 2.45-.24 4.86-.55 7.28-1.03 34.6-6.68 61.03-38.12 62.81-74.81.08-1.62-.3-3.28-.3-4.98v-6.6c11.86-3.04 21.23-6.41 31.59-10.32.04 0 .12-1.01.16-1.01.12-.04.32 2.91.48-1.05h.04c8.98 0 17.87-6.15 26.69-10.22.91 1.86 1.86 4.24 2.93 6.02 7.67 12.73 18.59 22.11 31.08 27.33 6.61 2.85 13.64 4.63 20.88 5.18 15.78 1.19 32.34-3.02 47.02-13.3a79.796 79.796 0 0 0 22.02-23.22c13.96-22.11 16.93-50.05 6.56-73.69a71.323 71.323 0 0 0-4.27-8.22c-1.03-1.74-2.21-3.4-3.36-5.02.32-.32.67-.67.95-.99 13.05-13.09 25.35-27.2 36.85-42.19 1.5-1.9 2.97-3.87 4.43-5.81 1.7 1.07 3.4 2.1 5.22 3.01 1.38.71 2.73 1.34 4.15 1.9 34.12 14.51 75.29-1.9 93.71-38.24 19.18-37.76 6.44-82.72-28.43-100.44-1.82-.95-3.64-1.7-5.5-2.45a440.542 440.542 0 0 0 14.63-63.03c2.02 0 4.03-.04 6.05-.24Zm-456.43 229.62c-.16 0-.36-.04-.52-.08-.04 0-.08 0-.12-.04a236.87 236.87 0 0 1-62.44-21.51c-126.65-64.3-172.88-227.6-103.24-364.74 30.13-59.35 77.03-104.07 130.8-130.49 38.95-19.18 81.54-28.71 123.96-27.24 34.32 1.15 68.53 9.53 100.63 25.86 1.19.59 2.37 1.23 3.52 1.86 124 65.48 168.73 227.01 99.72 362.88-43.38 85.41-121.47 140.57-204.83 154.45-28.95 4.82-58.52 4.66-87.51-.95Z" style="fill:url(#linear-gradient-22)"/><path class="cls-4" d="M1546.49 2538.5c-5.58 8.94-12.97 16.92-22.02 23.25-14.67 10.28-31.24 14.55-47.02 13.36-13.68.91-28.39-.79-41.99-4.78-15.22-2.14-29.42-9.49-40.02-21.51-10.4 3.95-20.88 7.39-31.51 10.44.2 2.09.4 4.23.43 6.4.04 1.7 0 3.36-.08 4.98-1.58 36.89-28.47 68.13-63.19 74.81-2.41.48-4.82.79-7.28 1.03-4.39.39-8.7 3-12.89-.95h-.12c-19.81 1.11-36.1-.67-49.27-4.78-.4-.08-.79-.2-1.15-.36a83.3 83.3 0 0 1-3.68-1.27c-.87-.32-1.7-.63-2.49-.99-25.27-10.36-37.37-30.13-40.61-53.26-.08-.55-.16-1.07-.2-1.62-.24-2.06-.93-4.11-1.05-6.21-.08-1.07-.65-1.82-.65-2.81v-6.52c-3.95-.51-9.13-1.03-13.96-1.78-1.19-.16-2.12-.28-3.3-.47-1.42-.2-2.7-.43-4.08-.67-.16-.04-.28-.08-.48-.08s-.36-.04-.52-.08c-.31.71-.65 1.42-1.01 2.14-18.43 36.3-59.62 52.75-93.74 38.24-13.96 2.37-28.43.55-41.63-6.17-5.97-3.04-11.31-6.88-15.89-11.35-3.52-3.36-6.56-7.04-9.21-11.03-4.47-6.6-7.75-13.96-9.77-21.79-2.77-10.64-3.28-22.06-1.27-33.45 1.38-7.71 3.95-15.42 7.71-22.86.99-1.94 2.1-3.8 3.2-5.65l-.08-.08c-3.64-2.85-7.2-5.89-10.72-9.02-.28-.24-.55-.47-.83-.75-5.61-5.02-11.03-10.24-16.29-15.34-.08.04-.2.08-.28.08-8.03 3.08-16.25 3.95-24.4 3.95h-.08c-35.07 7.91-79.52-9.29-95.5-35.78-8.74-14.51-11.82-31.24-9.84-47.49 2.61-22.18 14.55-43.5 34.16-57.26 1.78-1.23 3.56-2.14 5.38-3.16 0-.04.04-.04.04-.04-7.08-19.3-12.69-38.28-16.85-58.64-.04-.04-.04.71-.04.71h-.04c-.32 0-.59 0-.91-.12-.04 0-.04.12-.08.12h-.08c-1.7 0-3.48-.4-5.18-.24-20.96 1.86-39.98-6.27-53.46-19.99-12.14-12.34-19.73-29.86-20.13-49.55-.83-41.6 30.76-78.26 70.58-81.82 2.02-.2 4.03-.3 6.01-.3 3.28-21.08 8.18-42.14 14.67-63.06-1.86-.75-3.72-1.52-5.5-2.43-34.92-17.71-47.65-62.72-28.47-100.48 18.43-36.3 59.63-52.75 93.75-38.24 4.59-.79 9.21-1.11 13.8-.91 11.78-15.38 24.44-29.82 37.8-43.18a73.559 73.559 0 0 1-3.4-5.02c-20.6-34.2-9.73-81.3 24.32-105.14 8.03-5.65 16.69-9.49 25.43-11.59 5.69 3.84 11.58 7.95 17.64 12.3 45.43 32.94 98.66 80.59 128.55 138.79 2.77 5.5 5.42 11.11 7.79 16.81-53.78 26.41-100.67 71.14-130.8 130.49-69.63 137.13-23.41 300.44 103.24 364.74a236.746 236.746 0 0 0 62.44 21.51c.28.04.51.04.75.04 19.14.67 38.12-.87 56.9-4.51 2.65-.51 5.26-1.07 7.91-1.66 2.57-.55 5.14-1.19 7.67-1.82 4.78 3.16 9.77 6.21 14.91 9.02 50.1 27.68 117.2 38.63 205.38 23.49.04 0 .08 0 .12-.04 10.48-1.78 21.23-3.95 32.31-6.52.16 0 .28-.04.44-.08 2.53 4.78 4.63 9.57 6.25 14.31 8.62 25.27 4.71 50.22-6.56 73.71Z"/><path d="M282.34 2801.88c-.96-.3-2.89-.89-5.33-.59-3.08.38-5.21 1.98-6.43 2.91-1.15.88-10.61 8.35-10.5 18.59.09 8.19 6.2 8.7 12.27 22.36 4.94 11.11 2.11 13.51 6.61 19.24 7.51 9.57 23.99 13.8 31.09 7.5 3.31-2.94 3.75-7.43 3.87-8.63 1.09-11.15-10.53-14.34-13.07-26.88-2.56-12.58 7.3-18.42 2.57-25.56-1.92-2.9-8.31-4.91-21.08-8.94Z" style="fill:url(#linear-gradient-23)"/><path d="M291.55 2782.63c-10.53 9.69-15.11 20.46-11.81 25.97 1.23 2.05 3.51 3.3 4.52 3.86 7.06 3.87 14.58 1.04 16.01.47l13.57-19.06-22.29-11.24Z" style="fill:url(#linear-gradient-24)"/><path d="M24.03 2856.49a9.804 9.804 0 0 0-9.8 1.94c-4.16 3.69-10.18 9.47-13.39 14.47-5.2 8.12 14.6 12 35.09 16.27 20.49 4.27 45.85 10.99 45.1 4.8-.76-6.18-6.64-15.58-26.44-25.64-5.25-2.67-21.88-8.79-30.56-11.84Z" style="fill:url(#linear-gradient-25)"/><path d="m26.08 2833.83-8.57 27.16s4.65 8.82 17.02 3.62l14.27-23.7-22.72-7.07Z" style="fill:url(#linear-gradient-26)"/><path d="M790.46 1666.61c.01.08-40.5 58.36-79.31 69.78l102.32 16.64s-13.35-4.51-13.35-23.25c0-11.69 9.1-39.78 9.1-39.78l-18.76-23.38Z" style="fill:url(#linear-gradient-27)"/><path d="M570.89 2263.61c10.39 40.28 23.98 99.47 34.51 172.33 18.28 126.38 7.08 153.54 1.18 165.39-21.92 44.05-58.21 52.56-149.66 107.16-65.25 38.96-115.05 75.39-146.1 99.35a56.946 56.946 0 0 1-19.42-6.87 56.584 56.584 0 0 1-14.46-11.88c8.38-40.63 23.95-67.58 36.08-84.26 14.37-19.75 27.12-29.49 89.12-78.9 44.03-35.08 66.06-52.66 67.21-54.79 37.68-69.98-83.87-162.86-56.25-235.63 10.34-27.25 44.58-59.57 157.79-71.92Z" style="fill:url(#linear-gradient-28)"/><path d="M313.01 2704.84c14.37-19.75 27.12-29.49 89.12-78.9 44.03-35.08 66.06-52.66 67.21-54.79 37.68-69.98-83.87-162.86-56.25-235.63 10.34-27.25 44.58-59.57 157.79-71.92 5.27 20.42 11.36 45.74 17.45 75.19-41.58 21.38-54.43 42.66-56.9 59.95-5.88 41.18 45.3 69.89 32.87 105.2-10.08 28.65-49.23 25.2-56.98 54.79-7.52 28.69 25.85 45.06 19.72 67.94-10.01 37.39-105.21 16.58-155.6 65.75-16.21 15.82-32.22 43.32-33.39 94.91-10.25 7.52-19.36 14.42-27.24 20.51a56.946 56.946 0 0 1-19.42-6.87 56.584 56.584 0 0 1-14.46-11.88c8.38-40.63 23.95-67.58 36.08-84.26Z" style="mix-blend-mode:multiply;opacity:.3;fill:url(#linear-gradient-29)"/><path d="M591.71 2278.22a2313.354 2313.354 0 0 0-134.78 99.72c-77.78 62.01-161.43 128.71-245.02 228.67-45.36 54.24-104.54 134.81-158.54 244.27-3.81.8-11 1.77-19.54-.43-10.23-2.64-16.77-8.37-19.6-11.18-9.8-80.65 4.58-137.27 18.63-173.13 31.26-79.8 67.29-73.25 129.3-189.57 16.8-31.52 35.82-72.63 76.27-143.74 15.47-27.19 27.25-46.77 46.46-68.84 30.65-35.21 63.32-57.36 86.77-70.74 73.35 28.33 146.7 56.66 220.05 84.98Z" style="fill:url(#linear-gradient-30)"/><path d="M825.63 1646c3.23-10.61-4.37-26.57-16.87-31.19-9.28-3.43-17.97.61-24.31 3.55-2.93 1.36-23.46 11.19-24.51 28.44-.33 5.48 1.96 12.07 5.54 16.73 1.84 2.4 4.86 5.17 11.25 10.26 5.67 4.52 5.35 4.4 7.06 5.7 4.11 3.11 11.76 8.13 24.4 12.81-.3-3.08-.47-6.96-.13-11.35.13-1.69.71-8.32 2.96-14.43 4.55-12.4 12.08-12.23 14.6-20.52Z" style="fill:url(#linear-gradient-31)"/><path d="M792.72 1688.62s15.48 12.73 34.65 4.63c17.16-7.25 6.03-47.53-8.09-51.99-4.71-1.49-12.61-.04-18.11 3.79-3.25 2.26-3.95 4.18-9.33 7.77-4.96 3.31-6.71 3.24-7.88 5.2-1.46 2.45-1.49 7.22 5.96 17.54-4.53-2.23-9.01-2.13-11.39.21-.38.37-1.3 1.61-1.55 3.09-.89 5.35 5.22 9.67 15.73 9.75Z" style="fill:url(#linear-gradient-32)"/><path d="m1215.9 1709.82 24.07-24.74s30.03-14.66 51.95-3.7 2.78 9.44-8.47 10.93c-11.25 1.49-28.17 11.62-39.07 17.51-10.9 5.89-22.59 13.75-22.59 13.75l-5.89-13.75Z" style="fill:url(#linear-gradient-33)"/><path d="M1213.75 1695.99c7.79 9.74 15.58 19.48 23.38 29.22-21.34 72.74-55.57 112.72-83.28 135.88-88.58 74.02-180.52 34.56-298.12 123.82-36.29 27.54-59.16 55.31-78.2 78.42-85.85 104.2-80.47 171.65-154.41 214.05-40.72 23.35-79.9 24.43-105.54 25.14-73.14 2.03-172.72-26.34-188.37-84.78-2.98-11.12-2.11-20.33-1.58-25 14.33-126.36 163.91-299.65 224.27-367.45 42.1-47.29 78.39-85.51 134.42-94.97 23.47-3.96 42.43-1.43 80.36 3.65 68.97 9.23 90.48 24.68 151.03 37.42 40.85 8.59 86.48 18.19 137.04 10.53 29.83-4.52 92.79-19.79 159.02-85.94Z" style="fill:url(#linear-gradient-34)"/><path d="M485.42 2232.19c22.91-48.33-2.95-84.57 26.3-120.54 35.35-43.47 87.96-8.75 140.26-50.41 60.73-48.38 35.78-131.84 87.66-151.22 32.6-12.18 47.34 18.94 96.43 10.96 53.1-8.64 54.15-48.03 107.39-65.75 57.85-19.25 84.98 17.84 162.18 13.15 15.38-.94 32.04-3.63 49.7-8.59-.49.42-1 .87-1.48 1.28-88.58 74.02-180.52 34.56-298.12 123.82-36.29 27.54-59.16 55.31-78.2 78.42-85.85 104.2-80.47 171.65-154.41 214.05-40.72 23.35-79.9 24.43-105.54 25.14-28.49.79-60.95-3.09-90.94-11.51 32.47-18.27 49.56-39.36 58.78-58.82Z" style="fill:url(#linear-gradient-35);mix-blend-mode:multiply;opacity:.3"/></g></g></g></svg>